<svg width="56" height="57" viewBox="0 0 56 57" fill="none" xmlns="http://www.w3.org/2000/svg">
<rect y="0.5" width="56" height="56" rx="28" fill="#F8F8F8"/>
<path fill-rule="evenodd" clip-rule="evenodd" d="M18.7277 22.827C20.0514 23.6853 21.5304 24.6443 23.8618 24.4853C23.8618 24.4853 21.2226 25.2568 18.4861 23.7032C18.7667 27.2032 17.0113 30.5841 17.0113 30.5841C17.0113 30.5841 20.5642 31.048 23.9032 33.1336C27.2677 35.237 29.2632 38.9853 29.2632 38.9853C29.2632 38.9853 27.1532 36.8099 23.3158 34.535C19.4623 32.2883 13.8828 32.1859 13.8828 32.1859C13.8828 32.1859 14.8049 31.1352 15.8164 29.2418C16.7997 27.3994 18.4449 23.7909 18.4852 23.7027C17.4183 23.0968 16.3367 22.1374 15.3909 20.6411C11.9935 15.2885 20.6691 11.2879 25.9767 14.8605C31.1585 18.3869 32.8123 18.6006 36.306 19.0522L36.5834 19.0881C40.2706 19.5667 43.6145 22.9541 42.904 27.3782C42.1935 31.8023 38.6753 33.2118 35.9051 32.1906C35.2791 31.9598 34.701 31.7282 34.1618 31.5121C32.3147 30.772 30.9238 30.2146 29.6276 30.501C29.6276 30.501 31.5516 29.3208 33.724 30.2018C35.8964 31.0828 39.8757 30.4268 40.7886 27.5205C41.727 24.6319 39.9295 21.8476 37.1005 21.1788C36.1763 20.9498 35.2454 20.8267 34.3118 20.7032C32.4038 20.4508 30.4841 20.1968 28.585 19.0348C28.0265 18.6931 27.47 18.2991 26.9077 17.9009C24.6221 16.2826 22.2387 14.595 19.2215 16.0651C15.4618 17.8969 17.0155 21.7314 18.4008 22.6159C18.509 22.6851 18.6178 22.7557 18.7277 22.827ZM28.9672 43.4998C28.9672 43.4998 29.95 40.7208 30.9117 38.4779C31.8895 36.2069 34.7436 31.7782 34.7436 31.7782C31.5134 34.0568 28.5035 40.8167 28.5035 40.8167C28.5035 40.8167 26.9823 39.4835 23.4324 37.3298C19.2662 34.8099 14.0707 35.0061 13.1649 35.0403L13.1643 35.0403C13.1251 35.0418 13.0939 35.0429 13.0713 35.0436C13.3977 35.0344 15.3077 35.0641 20.354 37.4713C25.892 40.1418 28.9672 43.4998 28.9672 43.4998Z" fill="#757575"/>
</svg>
