<svg width="16" height="16" viewBox="0 0 16 16" fill="none" xmlns="http://www.w3.org/2000/svg">
<path id="Vector" d="M7.11111 12.4444C7.11111 12.9333 7.51111 13.3333 8 13.3333C8.48889 13.3333 8.88889 12.9333 8.88889 12.4444C8.88889 11.9556 8.48889 11.5556 8 11.5556C7.51111 11.5556 7.11111 11.9556 7.11111 12.4444ZM7.11111 0V3.55556H8.88889V1.84889C11.9022 2.28444 14.2222 4.86222 14.2222 8C14.2222 11.44 11.44 14.2222 8 14.2222C4.56 14.2222 1.77778 11.44 1.77778 8C1.77778 6.50667 2.30222 5.13778 3.18222 4.07111L8 8.88889L9.25333 7.63556L3.20889 1.59111V1.60889C1.26222 3.06667 0 5.37778 0 8C0 12.4178 3.57333 16 8 16C12.4178 16 16 12.4178 16 8C16 3.58222 12.4178 0 8 0H7.11111ZM13.3333 8C13.3333 7.51111 12.9333 7.11111 12.4444 7.11111C11.9556 7.11111 11.5556 7.51111 11.5556 8C11.5556 8.48889 11.9556 8.88889 12.4444 8.88889C12.9333 8.88889 13.3333 8.48889 13.3333 8ZM2.66667 8C2.66667 8.48889 3.06667 8.88889 3.55556 8.88889C4.04444 8.88889 4.44444 8.48889 4.44444 8C4.44444 7.51111 4.04444 7.11111 3.55556 7.11111C3.06667 7.11111 2.66667 7.51111 2.66667 8Z" fill="#393939"/>
</svg>
