<svg width="19" height="18" viewBox="0 0 19 18" fill="none" xmlns="http://www.w3.org/2000/svg">
<path id="Vector" d="M10.8303 0.378142C10.2521 -0.126047 9.34754 -0.126047 8.76929 0.378142L1.50402 6.71297C1.0545 7.10492 0.799805 7.65027 0.799805 8.22077V15.925C0.799805 17.0709 1.80716 18 3.0498 18H5.2998C6.54245 18 7.5498 17.0709 7.5498 15.925V12.4666C7.5498 12.0846 7.88559 11.775 8.2998 11.775H11.2998C11.714 11.775 12.0498 12.0846 12.0498 12.4666V15.925C12.0498 17.0709 13.0572 18 14.2998 18H16.5498C17.7924 18 18.7998 17.0709 18.7998 15.925V8.22077C18.7998 7.65027 18.5451 7.10492 18.0956 6.71297L10.8303 0.378142Z" fill="#FFDB81"/>
</svg>
