<svg width="16" height="16" viewBox="0 0 16 16" fill="none" xmlns="http://www.w3.org/2000/svg">
<g id="Icons / basic / pencil-edit">
<path id="icon" fill-rule="evenodd" clip-rule="evenodd" d="M14.6667 13.3333V8.66665H13.3333V13.3333H2.66666V2.66665H7.33333V1.33331H2.66666C1.93028 1.33331 1.33333 1.93027 1.33333 2.66665V13.3333C1.33333 14.0697 1.93028 14.6666 2.66666 14.6666H13.3333C14.0697 14.6666 14.6667 14.0697 14.6667 13.3333ZM12.7854 1.81559C12.4798 1.50759 12.0614 1.33331 11.6249 1.33331C11.1889 1.33331 10.7709 1.5072 10.4636 1.8164L4.88433 7.39559C4.38577 7.83487 4.05895 8.48854 4.00216 9.19151L3.99999 11.3349V12.0015H6.7564C7.5126 11.9497 8.17268 11.6196 8.63833 11.0825L14.186 5.5372C14.4938 5.22942 14.6667 4.81197 14.6667 4.3767C14.6667 3.94143 14.4938 3.52398 14.186 3.21619L12.7854 1.81559ZM6.70932 10.6699C7.06547 10.6446 7.39699 10.4789 7.66319 10.1744L11.7045 6.13313L9.86827 4.29683L5.7974 8.36637C5.5273 8.60526 5.3602 8.93947 5.33333 9.2452V10.6686L6.70932 10.6699ZM10.8112 3.35417L12.6473 5.19032L13.2432 4.59439C13.3009 4.53666 13.3334 4.45835 13.3334 4.3767C13.3334 4.29505 13.3009 4.21674 13.2432 4.159L11.8407 2.75655C11.7837 2.69901 11.706 2.66665 11.6249 2.66665C11.5438 2.66665 11.4661 2.69901 11.409 2.75655L10.8112 3.35417Z" fill="#393939"/>
</g>
</svg>
