<svg width="19" height="18" viewBox="0 0 19 18" fill="none" xmlns="http://www.w3.org/2000/svg">
<g id="Frame">
<path id="Vector" d="M18.282 17.208L14.79 13.698C15.942 12.258 16.662 10.458 16.662 8.47799C16.662 3.97799 13.08 0.377991 8.57998 0.377991C4.07998 0.377991 0.47998 3.97799 0.47998 8.47799C0.47998 12.978 4.07998 16.578 8.57998 16.578C10.56 16.578 12.36 15.858 13.8 14.688L17.292 18.198C17.382 18.288 17.562 18.378 17.742 18.378C17.922 18.378 18.102 18.288 18.192 18.198C18.552 17.928 18.552 17.478 18.282 17.208ZM1.82998 8.47799C1.82998 4.78799 4.88998 1.72799 8.57998 1.72799C12.27 1.72799 15.312 4.78799 15.312 8.47799C15.312 12.168 12.27 15.228 8.57998 15.228C4.88998 15.228 1.82998 12.168 1.82998 8.47799Z" fill="#828282"/>
</g>
</svg>
