<svg width="101" height="101" viewBox="0 0 101 101" fill="none" xmlns="http://www.w3.org/2000/svg">
<path d="M58.4721 18.7145H86.1777V53.0695C86.1777 62.3047 84.3307 69.3235 80.6366 74.1258C76.5731 79.1128 69.7391 81.9757 60.1344 82.7145V66.3682C63.4591 66.3682 66.2297 64.9829 68.4461 62.2124C69.5544 60.7347 70.1085 57.8718 70.1085 53.6236V48.3595H58.4721V18.7145ZM15.2513 18.7145H42.9569L42.9569 53.0695C42.9569 62.3047 41.2946 69.0464 37.9699 73.2946C33.537 78.8357 26.5183 81.9757 16.9136 82.7145V66.3682C22.6395 66.3682 25.8718 63.5053 26.6106 57.7795C26.7953 57.0406 26.8877 55.6554 26.8877 53.6236V48.3595L15.2513 48.3595V18.7145Z" fill="#FEBA10"/>
</svg>
