<svg width="246" height="246" viewBox="0 0 246 246" fill="none" xmlns="http://www.w3.org/2000/svg">
<rect width="246" height="246" fill="#FFCA20"/>
<path fill-rule="evenodd" clip-rule="evenodd" d="M98.9902 61.9998C103.294 64.3928 108.103 67.0666 115.566 66.4237C115.566 66.4237 107.173 68.8674 98.2994 64.5771C99.4421 74.7298 94.0542 84.6923 94.0542 84.6923C94.0542 84.6923 105.477 85.7657 116.328 91.5713C127.263 97.4266 133.924 108.171 133.924 108.171C133.924 108.171 127.006 102.009 114.544 95.6916C102.032 89.4576 84.1368 89.5919 84.1368 89.5919C84.1368 89.5919 87.0192 86.4655 90.1292 80.8818C93.1368 75.4761 98.1224 64.9362 98.2935 64.5742C94.8244 62.8958 91.282 60.1881 88.139 55.9026C76.871 40.6025 104.403 28.2982 121.67 38.2746C138.531 48.1266 143.848 48.62 155.08 49.6623L155.972 49.7452C167.827 50.851 178.785 60.4413 176.818 73.36C174.851 86.2787 163.671 90.6497 154.718 87.8948C152.695 87.2723 150.825 86.6435 149.081 86.0571C143.108 84.0482 138.609 82.5355 134.474 83.4686C134.474 83.4686 140.559 79.8878 147.585 82.2812C154.612 84.6746 167.323 82.4587 170.046 73.9375C172.852 65.466 166.893 57.5095 157.776 55.7842C154.797 55.19 151.805 54.9041 148.803 54.6173C142.668 54.0312 136.496 53.4415 130.326 50.2099C128.511 49.2596 126.699 48.1571 124.869 47.0429L124.869 47.0429C117.427 42.5145 109.668 37.7923 100.098 42.3005C88.1733 47.9178 93.4237 58.9468 97.9271 61.4115C98.2788 61.6042 98.6327 61.801 98.9901 61.9997L98.9902 61.9998ZM133.285 121.319C133.285 121.319 136.241 113.163 139.167 106.567C142.142 99.8879 150.981 86.7898 150.981 86.7898C140.785 93.6654 131.61 113.554 131.61 113.554C131.61 113.554 126.64 109.795 115.108 103.808C101.574 96.8039 84.9312 97.7767 82.0298 97.9463L82.0294 97.9463C81.903 97.9537 81.8027 97.9596 81.7299 97.9632C82.7756 97.9113 88.901 97.8497 105.248 104.458C123.191 111.794 133.285 121.319 133.285 121.319Z" fill="#191919"/>
<path d="M85.25 206.8C76.95 206.8 71 204.85 67.4 200.95C63.8 196.95 62 191.7 62 185.2C62 183.5 62.15 181.45 62.45 179.05C62.75 176.65 63.15 173.75 63.65 170.35C64.45 165.45 65.05 161.1 65.45 157.3C65.85 153.4 66.05 149.15 66.05 144.55C66.05 139.25 65.9 134.95 65.6 131.65C63.9 132.65 62.65 133.15 61.85 133.15C60.25 133.15 59.45 131.35 59.45 127.75C59.45 124.95 60.05 122.6 61.25 120.7C62.55 118.7 64.65 116.85 67.55 115.15C70.45 113.35 74.1 111.8 78.5 110.5C83 109.2 87.8 108.55 92.9 108.55C101.2 108.55 107.5 110.45 111.8 114.25C116.1 118.05 118.25 123.05 118.25 129.25C118.25 133.25 117.4 136.95 115.7 140.35C114 143.75 111.6 146.75 108.5 149.35C121 151.35 127.25 158.55 127.25 170.95C127.25 177.65 125.35 183.75 121.55 189.25C117.75 194.75 112.6 199.05 106.1 202.15C99.8 205.25 92.85 206.8 85.25 206.8ZM91.25 190.15C95.75 190.15 99.8 189.55 103.4 188.35C107.1 187.05 110.05 185.2 112.25 182.8C114.45 180.4 115.55 177.6 115.55 174.4C115.55 170.3 114.1 167.4 111.2 165.7C108.3 164 104.95 163.15 101.15 163.15C99.55 163.15 97.55 163.3 95.15 163.6C94.15 163.8 93 163.9 91.7 163.9C89.5 163.9 87.65 163 86.15 161.2C84.75 159.4 84.05 157.15 84.05 154.45C84.05 152.55 84.9 151.35 86.6 150.85C98.8 147.65 104.9 142.1 104.9 134.2C104.9 127.9 100.55 124.75 91.85 124.75C88.65 124.75 84.7 125.3 80 126.4C80 131.3 79.75 136.45 79.25 141.85C78.75 147.15 78 152.7 77 158.5C76.4 162.5 75.9 165.9 75.5 168.7C75.2 171.4 75.05 173.6 75.05 175.3C75.05 180.7 76.4 184.55 79.1 186.85C81.8 189.05 85.85 190.15 91.25 190.15ZM156.963 206.95C149.363 206.95 143.413 204.8 139.113 200.5C134.913 196.1 132.813 190 132.813 182.2C132.813 175.1 134.363 168.65 137.463 162.85C140.563 157.05 144.713 152.45 149.913 149.05C155.213 145.55 161.013 143.8 167.313 143.8C173.313 143.8 178.113 145.3 181.713 148.3C185.313 151.2 187.113 155.1 187.113 160C187.113 163.9 185.913 167.5 183.513 170.8C181.113 174.1 177.913 176.75 173.913 178.75C169.913 180.65 165.463 181.6 160.563 181.6C154.563 181.6 149.663 180.25 145.863 177.55C145.963 182.15 147.513 185.85 150.513 188.65C153.613 191.45 157.563 192.85 162.363 192.85C165.263 192.85 168.213 192.35 171.213 191.35C174.313 190.25 176.963 188.8 179.163 187C180.563 185.8 181.863 185.2 183.063 185.2C184.063 185.2 184.863 185.55 185.463 186.25C186.163 186.85 186.513 187.65 186.513 188.65C186.513 190.85 184.613 193.75 180.813 197.35C174.113 203.75 166.163 206.95 156.963 206.95ZM159.213 171.7C162.813 171.7 165.813 170.95 168.213 169.45C170.613 167.95 171.813 166.05 171.813 163.75C171.813 161.85 171.013 160.4 169.413 159.4C167.813 158.3 165.613 157.75 162.813 157.75C159.113 157.75 155.863 158.75 153.063 160.75C150.363 162.65 148.413 165.35 147.213 168.85C148.613 169.75 150.413 170.45 152.613 170.95C154.813 171.45 157.013 171.7 159.213 171.7Z" fill="#191919"/>
</svg>
