<svg width="56" height="56" viewBox="0 0 56 56" fill="none" xmlns="http://www.w3.org/2000/svg">
<rect width="56" height="56" rx="28" fill="#FCEEC0"/>
<path d="M37.9168 20.9166C37.9168 19.3583 36.6418 18.0833 35.0835 18.0833H30.8335V20.9166H35.0835V24.6708L30.1535 30.8333H25.1668V23.75H19.5002C16.3693 23.75 13.8335 26.2858 13.8335 29.4166V33.6666H16.6668C16.6668 36.0183 18.5652 37.9166 20.9168 37.9166C23.2685 37.9166 25.1668 36.0183 25.1668 33.6666H31.5135L37.9168 25.6625V20.9166ZM16.6668 30.8333V29.4166C16.6668 27.8583 17.9418 26.5833 19.5002 26.5833H22.3335V30.8333H16.6668ZM20.9168 35.0833C20.1377 35.0833 19.5002 34.4458 19.5002 33.6666H22.3335C22.3335 34.4458 21.696 35.0833 20.9168 35.0833Z" fill="#FEBA10"/>
<path d="M25.1668 19.5H18.0835V22.3333H25.1668V19.5Z" fill="#FEBA10"/>
<path d="M37.9168 29.4166C35.5652 29.4166 33.6668 31.315 33.6668 33.6666C33.6668 36.0183 35.5652 37.9166 37.9168 37.9166C40.2685 37.9166 42.1668 36.0183 42.1668 33.6666C42.1668 31.315 40.2685 29.4166 37.9168 29.4166ZM37.9168 35.0833C37.1377 35.0833 36.5002 34.4458 36.5002 33.6666C36.5002 32.8875 37.1377 32.25 37.9168 32.25C38.696 32.25 39.3335 32.8875 39.3335 33.6666C39.3335 34.4458 38.696 35.0833 37.9168 35.0833Z" fill="#FEBA10"/>
</svg>
