<svg width="117" height="50" viewBox="0 0 117 50" fill="none" xmlns="http://www.w3.org/2000/svg">
<path fill-rule="evenodd" clip-rule="evenodd" d="M12.6299 8.50549C13.8853 9.24595 15.288 10.0733 17.499 9.93614C17.499 9.93614 14.996 10.6018 12.4007 9.26142C12.6669 12.281 11.0021 15.198 11.0021 15.198C11.0021 15.198 14.3716 15.5982 17.5383 17.3975C20.7292 19.2122 22.6217 22.446 22.6217 22.446C22.6217 22.446 20.6206 20.5692 16.9812 18.6066C13.3265 16.6683 8.03497 16.5799 8.03497 16.5799C8.03497 16.5799 8.90949 15.6734 9.86885 14.0399C10.802 12.4493 12.3639 9.33299 12.3999 9.26102C11.3881 8.73829 10.3623 7.91061 9.4653 6.61966C6.24322 2.00182 14.4711 -1.44962 19.5048 1.63253C24.4192 4.67487 25.9877 4.85928 29.3011 5.24885L29.5642 5.27983C33.0611 5.6927 36.2324 8.61512 35.5586 12.432C34.8847 16.2488 31.5481 17.4648 28.9209 16.5838C28.3273 16.3847 27.7791 16.1849 27.2678 15.9985L27.2676 15.9984L27.2675 15.9984C25.5158 15.3599 24.1966 14.8791 22.9673 15.1261C22.9673 15.1261 24.792 14.1079 26.8523 14.868C28.9126 15.6281 32.6866 15.0621 33.5524 12.5547C34.4424 10.0626 32.7376 7.66052 30.0546 7.08356C29.178 6.88601 28.2952 6.77978 27.4098 6.67322C25.6003 6.45546 23.7796 6.23636 21.9785 5.23386C21.4488 4.93904 20.9211 4.59913 20.3878 4.25561C18.2201 2.85943 15.9597 1.4035 13.0982 2.67178C9.53249 4.25211 11.006 7.56026 12.3198 8.32341C12.4224 8.38307 12.5256 8.44393 12.6298 8.50539L12.6299 8.50549ZM22.3418 26.3407C22.3418 26.3407 23.2739 23.9432 24.1859 22.0082C25.1132 20.0489 27.8201 16.2281 27.8201 16.2281C24.7566 18.1939 21.902 24.0259 21.902 24.0259C21.902 24.0259 20.4593 22.8757 17.0926 21.0177C13.1413 18.8436 8.21398 19.0129 7.35497 19.0424C7.31748 19.0437 7.28774 19.0447 7.26617 19.0452C7.5757 19.0373 9.38711 19.063 14.173 21.1397C19.4253 23.4436 22.3418 26.3407 22.3418 26.3407Z" fill="#FEBA10"/>
<path fill-rule="evenodd" clip-rule="evenodd" d="M12.6299 8.50549C13.8853 9.24595 15.288 10.0733 17.499 9.93614C17.499 9.93614 14.996 10.6018 12.4007 9.26142C12.6669 12.281 11.0021 15.198 11.0021 15.198C11.0021 15.198 14.3716 15.5982 17.5383 17.3975C20.7292 19.2122 22.6217 22.446 22.6217 22.446C22.6217 22.446 20.6206 20.5692 16.9812 18.6066C13.3265 16.6683 8.03497 16.5799 8.03497 16.5799C8.03497 16.5799 8.90949 15.6734 9.86885 14.0399C10.802 12.4493 12.3639 9.33299 12.3999 9.26102C11.3881 8.73829 10.3623 7.91061 9.4653 6.61966C6.24322 2.00182 14.4711 -1.44962 19.5048 1.63253C24.4192 4.67487 25.9877 4.85928 29.3011 5.24885L29.5642 5.27983C33.0611 5.6927 36.2324 8.61512 35.5586 12.432C34.8847 16.2488 31.5481 17.4648 28.9209 16.5838C28.3273 16.3847 27.7791 16.1849 27.2678 15.9985L27.2676 15.9984L27.2675 15.9984C25.5158 15.3599 24.1966 14.8791 22.9673 15.1261C22.9673 15.1261 24.792 14.1079 26.8523 14.868C28.9126 15.6281 32.6866 15.0621 33.5524 12.5547C34.4424 10.0626 32.7376 7.66052 30.0546 7.08356C29.178 6.88601 28.2952 6.77978 27.4098 6.67322C25.6003 6.45546 23.7796 6.23636 21.9785 5.23386C21.4488 4.93904 20.9211 4.59913 20.3878 4.25561C18.2201 2.85943 15.9597 1.4035 13.0982 2.67178C9.53249 4.25211 11.006 7.56026 12.3198 8.32341C12.4224 8.38307 12.5256 8.44393 12.6298 8.50539L12.6299 8.50549ZM22.3418 26.3407C22.3418 26.3407 23.2739 23.9432 24.1859 22.0082C25.1132 20.0489 27.8201 16.2281 27.8201 16.2281C24.7566 18.1939 21.902 24.0259 21.902 24.0259C21.902 24.0259 20.4593 22.8757 17.0926 21.0177C13.1413 18.8436 8.21398 19.0129 7.35497 19.0424C7.31748 19.0437 7.28774 19.0447 7.26617 19.0452C7.5757 19.0373 9.38711 19.063 14.173 21.1397C19.4253 23.4436 22.3418 26.3407 22.3418 26.3407Z" fill="#191919"/>
<path d="M3.45601 42.5411V40.8771H9.03682C10.1974 40.8771 11.1104 40.5528 11.776 39.9043C12.4416 39.2557 12.7744 38.4451 12.7744 37.4723C12.7744 36.8408 12.6294 36.2691 12.3392 35.7571C12.0491 35.2451 11.631 34.844 11.0848 34.5539C10.5558 34.2467 9.92428 34.0931 9.19042 34.0931H3.45601V32.4547H8.90882C9.86455 32.4547 10.6155 32.1987 11.1616 31.6867C11.7248 31.1747 12.0064 30.4493 12.0064 29.5107C12.0064 28.572 11.7078 27.8467 11.1104 27.3347C10.5131 26.8227 9.71095 26.5666 8.70401 26.5666H3.45601V24.9282H8.75521C9.84748 24.9282 10.7776 25.1245 11.5456 25.517C12.3136 25.9096 12.8939 26.4386 13.2864 27.1042C13.679 27.7699 13.8752 28.5208 13.8752 29.3571C13.8752 30.3469 13.6192 31.2003 13.1072 31.9171C12.5952 32.6168 11.8443 33.1544 10.8544 33.5299L11.0336 32.9155C12.1771 33.2739 13.0646 33.8627 13.696 34.6819C14.3446 35.5011 14.6688 36.4739 14.6688 37.6003C14.6688 38.5389 14.4384 39.3837 13.9776 40.1347C13.5339 40.8685 12.8768 41.4573 12.0064 41.9011C11.1531 42.3277 10.1206 42.5411 8.90882 42.5411H3.45601ZM2.2528 42.5411V24.9282H4.12161V42.5411H2.2528ZM23.3728 42.7971C22.1611 42.7971 21.0774 42.524 20.1216 41.9779C19.1659 41.4317 18.4064 40.6808 17.8432 39.7251C17.2971 38.7693 17.024 37.6941 17.024 36.4995C17.024 35.3219 17.2971 34.2637 17.8432 33.3251C18.3894 32.3693 19.1318 31.6184 20.0704 31.0723C21.0091 30.5261 22.0587 30.2531 23.2192 30.2531C24.3115 30.2531 25.2758 30.5005 26.112 30.9955C26.9654 31.4904 27.631 32.1816 28.1088 33.0691C28.6038 33.9395 28.8512 34.9464 28.8512 36.0899C28.8512 36.2264 28.8427 36.3885 28.8256 36.5763C28.8086 36.7469 28.7744 36.9517 28.7232 37.1907H18.304V35.6547H27.7504L27.1104 36.2179C27.1275 35.3304 26.9739 34.5709 26.6496 33.9395C26.3424 33.2909 25.8902 32.796 25.2928 32.4547C24.7126 32.0963 24.0043 31.9171 23.168 31.9171C22.2976 31.9171 21.5382 32.1048 20.8896 32.4803C20.2411 32.8557 19.7291 33.3848 19.3536 34.0675C18.9952 34.7331 18.816 35.5267 18.816 36.4483C18.816 37.3699 19.0038 38.1805 19.3792 38.8803C19.7718 39.58 20.3094 40.1261 20.992 40.5187C21.6918 40.9112 22.4939 41.1075 23.3984 41.1075C24.1323 41.1075 24.8064 40.9795 25.4208 40.7235C26.0352 40.4504 26.5558 40.0493 26.9824 39.5203L28.1344 40.6979C27.5712 41.3635 26.8715 41.884 26.0352 42.2595C25.216 42.6179 24.3286 42.7971 23.3728 42.7971Z" fill="#FEBA10"/>
<path d="M3.45601 42.5411V40.8771H9.03682C10.1974 40.8771 11.1104 40.5528 11.776 39.9043C12.4416 39.2557 12.7744 38.4451 12.7744 37.4723C12.7744 36.8408 12.6294 36.2691 12.3392 35.7571C12.0491 35.2451 11.631 34.844 11.0848 34.5539C10.5558 34.2467 9.92428 34.0931 9.19042 34.0931H3.45601V32.4547H8.90882C9.86455 32.4547 10.6155 32.1987 11.1616 31.6867C11.7248 31.1747 12.0064 30.4493 12.0064 29.5107C12.0064 28.572 11.7078 27.8467 11.1104 27.3347C10.5131 26.8227 9.71095 26.5666 8.70401 26.5666H3.45601V24.9282H8.75521C9.84748 24.9282 10.7776 25.1245 11.5456 25.517C12.3136 25.9096 12.8939 26.4386 13.2864 27.1042C13.679 27.7699 13.8752 28.5208 13.8752 29.3571C13.8752 30.3469 13.6192 31.2003 13.1072 31.9171C12.5952 32.6168 11.8443 33.1544 10.8544 33.5299L11.0336 32.9155C12.1771 33.2739 13.0646 33.8627 13.696 34.6819C14.3446 35.5011 14.6688 36.4739 14.6688 37.6003C14.6688 38.5389 14.4384 39.3837 13.9776 40.1347C13.5339 40.8685 12.8768 41.4573 12.0064 41.9011C11.1531 42.3277 10.1206 42.5411 8.90882 42.5411H3.45601ZM2.2528 42.5411V24.9282H4.12161V42.5411H2.2528ZM23.3728 42.7971C22.1611 42.7971 21.0774 42.524 20.1216 41.9779C19.1659 41.4317 18.4064 40.6808 17.8432 39.7251C17.2971 38.7693 17.024 37.6941 17.024 36.4995C17.024 35.3219 17.2971 34.2637 17.8432 33.3251C18.3894 32.3693 19.1318 31.6184 20.0704 31.0723C21.0091 30.5261 22.0587 30.2531 23.2192 30.2531C24.3115 30.2531 25.2758 30.5005 26.112 30.9955C26.9654 31.4904 27.631 32.1816 28.1088 33.0691C28.6038 33.9395 28.8512 34.9464 28.8512 36.0899C28.8512 36.2264 28.8427 36.3885 28.8256 36.5763C28.8086 36.7469 28.7744 36.9517 28.7232 37.1907H18.304V35.6547H27.7504L27.1104 36.2179C27.1275 35.3304 26.9739 34.5709 26.6496 33.9395C26.3424 33.2909 25.8902 32.796 25.2928 32.4547C24.7126 32.0963 24.0043 31.9171 23.168 31.9171C22.2976 31.9171 21.5382 32.1048 20.8896 32.4803C20.2411 32.8557 19.7291 33.3848 19.3536 34.0675C18.9952 34.7331 18.816 35.5267 18.816 36.4483C18.816 37.3699 19.0038 38.1805 19.3792 38.8803C19.7718 39.58 20.3094 40.1261 20.992 40.5187C21.6918 40.9112 22.4939 41.1075 23.3984 41.1075C24.1323 41.1075 24.8064 40.9795 25.4208 40.7235C26.0352 40.4504 26.5558 40.0493 26.9824 39.5203L28.1344 40.6979C27.5712 41.3635 26.8715 41.884 26.0352 42.2595C25.216 42.6179 24.3286 42.7971 23.3728 42.7971Z" fill="#191919"/>
<path d="M31.7408 42.5411V24.4674H35.76V42.5411H31.7408ZM34.8128 35.4499V31.9939H43.8496V35.4499H34.8128ZM34.8128 27.9235V24.4674H44.2592V27.9235H34.8128ZM53.0968 42.8227C51.8168 42.8227 50.6563 42.5411 49.6152 41.9779C48.5912 41.3976 47.7806 40.6125 47.1832 39.6227C46.5859 38.6328 46.2872 37.5235 46.2872 36.2947C46.2872 35.0659 46.5859 33.9651 47.1832 32.9923C47.7806 32.0195 48.5912 31.2515 49.6152 30.6883C50.6392 30.108 51.7998 29.8179 53.0968 29.8179C54.3939 29.8179 55.5544 30.0995 56.5784 30.6627C57.6024 31.2259 58.4131 32.0024 59.0105 32.9923C59.6078 33.9651 59.9065 35.0659 59.9065 36.2947C59.9065 37.5235 59.6078 38.6328 59.0105 39.6227C58.4131 40.6125 57.6024 41.3976 56.5784 41.9779C55.5544 42.5411 54.3939 42.8227 53.0968 42.8227ZM53.0968 39.2643C53.66 39.2643 54.155 39.1448 54.5816 38.9059C55.0083 38.6499 55.3326 38.3 55.5544 37.8563C55.7934 37.3955 55.9128 36.8749 55.9128 36.2947C55.9128 35.7144 55.7934 35.2109 55.5544 34.7843C55.3155 34.3405 54.9827 33.9992 54.556 33.7603C54.1464 33.5043 53.66 33.3763 53.0968 33.3763C52.5507 33.3763 52.0643 33.5043 51.6376 33.7603C51.211 33.9992 50.8782 34.3405 50.6392 34.7843C50.4003 35.228 50.2808 35.74 50.2808 36.3203C50.2808 36.8835 50.4003 37.3955 50.6392 37.8563C50.8782 38.3 51.211 38.6499 51.6376 38.9059C52.0643 39.1448 52.5507 39.2643 53.0968 39.2643ZM68.8709 42.8227C67.5909 42.8227 66.4303 42.5411 65.3893 41.9779C64.3653 41.3976 63.5546 40.6125 62.9573 39.6227C62.3599 38.6328 62.0613 37.5235 62.0613 36.2947C62.0613 35.0659 62.3599 33.9651 62.9573 32.9923C63.5546 32.0195 64.3653 31.2515 65.3893 30.6883C66.4133 30.108 67.5738 29.8179 68.8709 29.8179C70.1679 29.8179 71.3285 30.0995 72.3525 30.6627C73.3765 31.2259 74.1871 32.0024 74.7845 32.9923C75.3818 33.9651 75.6805 35.0659 75.6805 36.2947C75.6805 37.5235 75.3818 38.6328 74.7845 39.6227C74.1871 40.6125 73.3765 41.3976 72.3525 41.9779C71.3285 42.5411 70.1679 42.8227 68.8709 42.8227ZM68.8709 39.2643C69.4341 39.2643 69.929 39.1448 70.3557 38.9059C70.7823 38.6499 71.1066 38.3 71.3285 37.8563C71.5674 37.3955 71.6869 36.8749 71.6869 36.2947C71.6869 35.7144 71.5674 35.2109 71.3285 34.7843C71.0895 34.3405 70.7567 33.9992 70.3301 33.7603C69.9205 33.5043 69.4341 33.3763 68.8709 33.3763C68.3247 33.3763 67.8383 33.5043 67.4117 33.7603C66.985 33.9992 66.6522 34.3405 66.4133 34.7843C66.1743 35.228 66.0549 35.74 66.0549 36.3203C66.0549 36.8835 66.1743 37.3955 66.4133 37.8563C66.6522 38.3 66.985 38.6499 67.4117 38.9059C67.8383 39.1448 68.3247 39.2643 68.8709 39.2643ZM83.9537 42.7971C82.7761 42.7971 81.7265 42.5155 80.8049 41.9523C79.9004 41.3891 79.1835 40.6211 78.6545 39.6483C78.1425 38.6755 77.8865 37.5661 77.8865 36.3203C77.8865 35.0744 78.1425 33.9651 78.6545 32.9923C79.1835 32.0195 79.9004 31.2515 80.8049 30.6883C81.7265 30.1251 82.7761 29.8435 83.9537 29.8435C84.807 29.8435 85.575 30.0056 86.2577 30.3299C86.9574 30.6541 87.5292 31.1064 87.9729 31.6867C88.4337 32.2499 88.6897 32.8984 88.7409 33.6323V38.8803C88.6897 39.6141 88.4422 40.2797 87.9985 40.8771C87.5548 41.4573 86.983 41.9267 86.2833 42.2851C85.5836 42.6264 84.807 42.7971 83.9537 42.7971ZM84.6449 39.2643C85.2081 39.2643 85.6945 39.1448 86.1041 38.9059C86.5137 38.6499 86.838 38.3 87.0769 37.8563C87.3158 37.4125 87.4353 36.9005 87.4353 36.3203C87.4353 35.74 87.3158 35.2365 87.0769 34.8099C86.855 34.3661 86.5308 34.0163 86.1041 33.7603C85.6945 33.5043 85.2166 33.3763 84.6705 33.3763C84.1244 33.3763 83.638 33.5043 83.2113 33.7603C82.8017 34.0163 82.4689 34.3661 82.2129 34.8099C81.974 35.2536 81.8545 35.7571 81.8545 36.3203C81.8545 36.8835 81.974 37.3869 82.2129 37.8307C82.4518 38.2744 82.7846 38.6243 83.2113 38.8803C83.638 39.1363 84.1158 39.2643 84.6449 39.2643ZM91.1217 42.5411H87.2817V39.1875L87.8705 36.1667L87.2049 33.1459V23.9554H91.1217V42.5411ZM94.9035 42.5411V23.9554H98.8203V42.5411H94.9035ZM106.443 42.5923L101.323 30.0995H105.547L108.798 40.0067H107.236L110.564 30.0995H114.788L109.463 42.5923H106.443ZM103.243 47.7891L106.98 39.7251L109.463 42.5923L107.262 47.7891H103.243Z" fill="#FEBA10"/>
<path d="M31.7408 42.5411V24.4674H35.76V42.5411H31.7408ZM34.8128 35.4499V31.9939H43.8496V35.4499H34.8128ZM34.8128 27.9235V24.4674H44.2592V27.9235H34.8128ZM53.0968 42.8227C51.8168 42.8227 50.6563 42.5411 49.6152 41.9779C48.5912 41.3976 47.7806 40.6125 47.1832 39.6227C46.5859 38.6328 46.2872 37.5235 46.2872 36.2947C46.2872 35.0659 46.5859 33.9651 47.1832 32.9923C47.7806 32.0195 48.5912 31.2515 49.6152 30.6883C50.6392 30.108 51.7998 29.8179 53.0968 29.8179C54.3939 29.8179 55.5544 30.0995 56.5784 30.6627C57.6024 31.2259 58.4131 32.0024 59.0105 32.9923C59.6078 33.9651 59.9065 35.0659 59.9065 36.2947C59.9065 37.5235 59.6078 38.6328 59.0105 39.6227C58.4131 40.6125 57.6024 41.3976 56.5784 41.9779C55.5544 42.5411 54.3939 42.8227 53.0968 42.8227ZM53.0968 39.2643C53.66 39.2643 54.155 39.1448 54.5816 38.9059C55.0083 38.6499 55.3326 38.3 55.5544 37.8563C55.7934 37.3955 55.9128 36.8749 55.9128 36.2947C55.9128 35.7144 55.7934 35.2109 55.5544 34.7843C55.3155 34.3405 54.9827 33.9992 54.556 33.7603C54.1464 33.5043 53.66 33.3763 53.0968 33.3763C52.5507 33.3763 52.0643 33.5043 51.6376 33.7603C51.211 33.9992 50.8782 34.3405 50.6392 34.7843C50.4003 35.228 50.2808 35.74 50.2808 36.3203C50.2808 36.8835 50.4003 37.3955 50.6392 37.8563C50.8782 38.3 51.211 38.6499 51.6376 38.9059C52.0643 39.1448 52.5507 39.2643 53.0968 39.2643ZM68.8709 42.8227C67.5909 42.8227 66.4303 42.5411 65.3893 41.9779C64.3653 41.3976 63.5546 40.6125 62.9573 39.6227C62.3599 38.6328 62.0613 37.5235 62.0613 36.2947C62.0613 35.0659 62.3599 33.9651 62.9573 32.9923C63.5546 32.0195 64.3653 31.2515 65.3893 30.6883C66.4133 30.108 67.5738 29.8179 68.8709 29.8179C70.1679 29.8179 71.3285 30.0995 72.3525 30.6627C73.3765 31.2259 74.1871 32.0024 74.7845 32.9923C75.3818 33.9651 75.6805 35.0659 75.6805 36.2947C75.6805 37.5235 75.3818 38.6328 74.7845 39.6227C74.1871 40.6125 73.3765 41.3976 72.3525 41.9779C71.3285 42.5411 70.1679 42.8227 68.8709 42.8227ZM68.8709 39.2643C69.4341 39.2643 69.929 39.1448 70.3557 38.9059C70.7823 38.6499 71.1066 38.3 71.3285 37.8563C71.5674 37.3955 71.6869 36.8749 71.6869 36.2947C71.6869 35.7144 71.5674 35.2109 71.3285 34.7843C71.0895 34.3405 70.7567 33.9992 70.3301 33.7603C69.9205 33.5043 69.4341 33.3763 68.8709 33.3763C68.3247 33.3763 67.8383 33.5043 67.4117 33.7603C66.985 33.9992 66.6522 34.3405 66.4133 34.7843C66.1743 35.228 66.0549 35.74 66.0549 36.3203C66.0549 36.8835 66.1743 37.3955 66.4133 37.8563C66.6522 38.3 66.985 38.6499 67.4117 38.9059C67.8383 39.1448 68.3247 39.2643 68.8709 39.2643ZM83.9537 42.7971C82.7761 42.7971 81.7265 42.5155 80.8049 41.9523C79.9004 41.3891 79.1835 40.6211 78.6545 39.6483C78.1425 38.6755 77.8865 37.5661 77.8865 36.3203C77.8865 35.0744 78.1425 33.9651 78.6545 32.9923C79.1835 32.0195 79.9004 31.2515 80.8049 30.6883C81.7265 30.1251 82.7761 29.8435 83.9537 29.8435C84.807 29.8435 85.575 30.0056 86.2577 30.3299C86.9574 30.6541 87.5292 31.1064 87.9729 31.6867C88.4337 32.2499 88.6897 32.8984 88.7409 33.6323V38.8803C88.6897 39.6141 88.4422 40.2797 87.9985 40.8771C87.5548 41.4573 86.983 41.9267 86.2833 42.2851C85.5836 42.6264 84.807 42.7971 83.9537 42.7971ZM84.6449 39.2643C85.2081 39.2643 85.6945 39.1448 86.1041 38.9059C86.5137 38.6499 86.838 38.3 87.0769 37.8563C87.3158 37.4125 87.4353 36.9005 87.4353 36.3203C87.4353 35.74 87.3158 35.2365 87.0769 34.8099C86.855 34.3661 86.5308 34.0163 86.1041 33.7603C85.6945 33.5043 85.2166 33.3763 84.6705 33.3763C84.1244 33.3763 83.638 33.5043 83.2113 33.7603C82.8017 34.0163 82.4689 34.3661 82.2129 34.8099C81.974 35.2536 81.8545 35.7571 81.8545 36.3203C81.8545 36.8835 81.974 37.3869 82.2129 37.8307C82.4518 38.2744 82.7846 38.6243 83.2113 38.8803C83.638 39.1363 84.1158 39.2643 84.6449 39.2643ZM91.1217 42.5411H87.2817V39.1875L87.8705 36.1667L87.2049 33.1459V23.9554H91.1217V42.5411ZM94.9035 42.5411V23.9554H98.8203V42.5411H94.9035ZM106.443 42.5923L101.323 30.0995H105.547L108.798 40.0067H107.236L110.564 30.0995H114.788L109.463 42.5923H106.443ZM103.243 47.7891L106.98 39.7251L109.463 42.5923L107.262 47.7891H103.243Z" fill="#191919"/>
</svg>
