<svg width="24" height="25" viewBox="0 0 24 25" fill="none" xmlns="http://www.w3.org/2000/svg">
<g id="shopping_cart">
<path id="Vector" d="M16.5461 13.5C17.2961 13.5 17.9561 13.09 18.2961 12.47L21.8761 5.98C22.2461 5.32 21.7661 4.5 21.0061 4.5H6.20609L5.26609 2.5H1.99609V4.5H3.99609L7.59609 12.09L6.24609 14.53C5.51609 15.87 6.47609 17.5 7.99609 17.5H19.9961V15.5H7.99609L9.09609 13.5H16.5461ZM7.15609 6.5H19.3061L16.5461 11.5H9.52609L7.15609 6.5ZM7.99609 18.5C6.89609 18.5 6.00609 19.4 6.00609 20.5C6.00609 21.6 6.89609 22.5 7.99609 22.5C9.09609 22.5 9.99609 21.6 9.99609 20.5C9.99609 19.4 9.09609 18.5 7.99609 18.5ZM17.9961 18.5C16.8961 18.5 16.0061 19.4 16.0061 20.5C16.0061 21.6 16.8961 22.5 17.9961 22.5C19.0961 22.5 19.9961 21.6 19.9961 20.5C19.9961 19.4 19.0961 18.5 17.9961 18.5Z" fill="#393939"/>
</g>
</svg>
