<svg width="101" height="101" viewBox="0 0 101 101" fill="none" xmlns="http://www.w3.org/2000/svg">
<path d="M42.9074 82.14H15.2017V47.7851C15.2017 38.5498 17.0488 31.5311 20.7428 26.7288C24.8063 21.7417 31.6404 18.8788 41.245 18.14V34.4863C37.9203 34.4863 35.1498 35.8716 32.9333 38.6422C31.8251 40.1198 31.271 42.9827 31.271 47.2309V52.495H42.9074V82.14ZM86.1281 82.14H58.4225V47.7851C58.4225 38.5498 60.0848 31.8081 63.4095 27.5599C67.8424 22.0188 74.8612 18.8788 84.4658 18.14V34.4863C78.74 34.4863 75.5076 37.3493 74.7688 43.0751C74.5841 43.8139 74.4918 45.1992 74.4918 47.2309V52.495H86.1281V82.14Z" fill="#FEBA10"/>
</svg>
